<svg xmlns="http://www.w3.org/2000/svg" width="16" height="16" viewBox="0 0 16 16" fill="none">
<path d="M7.99998 8.66663C8.36817 8.66663 8.66665 8.36815 8.66665 7.99996C8.66665 7.63177 8.36817 7.33329 7.99998 7.33329C7.63179 7.33329 7.33331 7.63177 7.33331 7.99996C7.33331 8.36815 7.63179 8.66663 7.99998 8.66663Z" stroke="#E27F29" stroke-width="1.6" stroke-linecap="round" stroke-linejoin="round"/>
<path d="M7.99998 3.99996C8.36817 3.99996 8.66665 3.70148 8.66665 3.33329C8.66665 2.9651 8.36817 2.66663 7.99998 2.66663C7.63179 2.66663 7.33331 2.9651 7.33331 3.33329C7.33331 3.70148 7.63179 3.99996 7.99998 3.99996Z" stroke="#E27F29" stroke-width="1.6" stroke-linecap="round" stroke-linejoin="round"/>
<path d="M7.99998 13.3333C8.36817 13.3333 8.66665 13.0348 8.66665 12.6666C8.66665 12.2984 8.36817 12 7.99998 12C7.63179 12 7.33331 12.2984 7.33331 12.6666C7.33331 13.0348 7.63179 13.3333 7.99998 13.3333Z" stroke="#E27F29" stroke-width="1.6" stroke-linecap="round" stroke-linejoin="round"/>
</svg>