<svg xmlns="http://www.w3.org/2000/svg" width="16" height="14" viewBox="0 0 16 14" fill="none">
<path d="M10.6666 9.46502L7.99997 6.79835M7.99997 6.79835L5.33331 9.46502M7.99997 6.79835V12.7983M13.5933 11.0583C14.2435 10.7039 14.7572 10.1429 15.0532 9.4641C15.3492 8.78526 15.4108 8.02717 15.2281 7.30948C15.0454 6.59178 14.629 5.95536 14.0444 5.50065C13.4599 5.04594 12.7405 4.79884 12 4.79835H11.16C10.9582 4.01784 10.5821 3.29324 10.0599 2.67901C9.5378 2.06478 8.8832 1.57692 8.14537 1.25209C7.40754 0.927259 6.60567 0.773922 5.80005 0.803604C4.99443 0.833287 4.20602 1.04522 3.49409 1.42346C2.78216 1.8017 2.16525 2.33642 1.68972 2.9874C1.2142 3.63839 0.892434 4.38871 0.748627 5.18195C0.60482 5.97518 0.64271 6.7907 0.859449 7.56719C1.07619 8.34368 1.46613 9.06093 1.99997 9.66501" stroke="#BA681F" stroke-width="1.6" stroke-linecap="round" stroke-linejoin="round"/>
</svg>