<svg xmlns="http://www.w3.org/2000/svg" width="16" height="16" viewBox="0 0 16 16" fill="none">
<path d="M3.33325 10H2.66659C2.31296 10 1.97382 9.85953 1.72378 9.60949C1.47373 9.35944 1.33325 9.0203 1.33325 8.66668V2.66668C1.33325 2.31305 1.47373 1.97392 1.72378 1.72387C1.97382 1.47382 2.31296 1.33334 2.66659 1.33334H8.66658C9.02021 1.33334 9.35935 1.47382 9.60939 1.72387C9.85944 1.97392 9.99992 2.31305 9.99992 2.66668V3.33334M7.33325 6.00001H13.3333C14.0696 6.00001 14.6666 6.59696 14.6666 7.33334V13.3333C14.6666 14.0697 14.0696 14.6667 13.3333 14.6667H7.33325C6.59687 14.6667 5.99992 14.0697 5.99992 13.3333V7.33334C5.99992 6.59696 6.59687 6.00001 7.33325 6.00001Z" stroke="#BA681F" stroke-width="1.6" stroke-linecap="round" stroke-linejoin="round"/>
</svg>