<svg xmlns="http://www.w3.org/2000/svg" width="14" height="15" viewBox="0 0 14 15" fill="none">
<path d="M0.800049 3.46672H2.13338M2.13338 3.46672H12.8M2.13338 3.46672L2.13338 12.8C2.13338 13.1537 2.27386 13.4928 2.52391 13.7429C2.77396 13.9929 3.11309 14.1334 3.46672 14.1334H10.1334C10.487 14.1334 10.8261 13.9929 11.0762 13.7429C11.3262 13.4928 11.4667 13.1537 11.4667 12.8V3.46672M4.13338 3.46672V2.13338C4.13338 1.77976 4.27386 1.44062 4.52391 1.19057C4.77396 0.940525 5.11309 0.800049 5.46672 0.800049H8.13338C8.487 0.800049 8.82614 0.940525 9.07619 1.19057C9.32624 1.44062 9.46672 1.77976 9.46672 2.13338V3.46672M5.46672 6.80005V10.8M8.13338 6.80005V10.8" stroke="#E27F29" stroke-width="1.6" stroke-linecap="round" stroke-linejoin="round"/>
</svg>