<svg xmlns="http://www.w3.org/2000/svg" width="16" height="14" viewBox="0 0 16 14" fill="none">
<path d="M5.33378 10.1411L8.00044 12.8078M8.00044 12.8078L10.6671 10.1411M8.00044 12.8078V6.80776M13.9204 10.8678C14.5 10.4602 14.9347 9.87852 15.1613 9.20719C15.3879 8.53585 15.3947 7.80977 15.1807 7.13431C14.9667 6.45884 14.543 5.86915 13.9712 5.4508C13.3993 5.03244 12.709 4.8072 12.0004 4.80776H11.1604C10.9599 4.02634 10.5848 3.30059 10.0632 2.68514C9.54161 2.0697 8.88721 1.5806 8.14925 1.25466C7.41129 0.92872 6.60901 0.774441 5.80279 0.803433C4.99658 0.832426 4.20745 1.04394 3.49481 1.42204C2.78217 1.80014 2.16459 2.33499 1.68857 2.98631C1.21254 3.63763 0.890478 4.38845 0.746618 5.18226C0.602757 5.97606 0.64085 6.79215 0.85803 7.5691C1.07521 8.34605 1.46582 9.06361 2.00044 9.66776" stroke="#AEA49B" stroke-width="1.6" stroke-linecap="round" stroke-linejoin="round"/>
</svg>