<svg xmlns="http://www.w3.org/2000/svg" width="48" height="40" viewBox="0 0 48 40" fill="none">
<path d="M32 27.9951L24 19.9951M24 19.9951L16 27.9951M24 19.9951V37.9951M40.78 32.7751C42.7307 31.7116 44.2717 30.0288 45.1598 27.9923C46.0478 25.9558 46.2324 23.6815 45.6844 21.5285C45.1364 19.3754 43.887 17.4661 42.1334 16.102C40.3797 14.7378 38.2217 13.9966 36 13.9951H33.48C32.8746 11.6536 31.7463 9.47975 30.1799 7.63707C28.6135 5.79439 26.6497 4.33079 24.4362 3.3563C22.2227 2.38181 19.8171 1.9218 17.4002 2.01085C14.9834 2.0999 12.6181 2.73569 10.4824 3.87042C8.34659 5.00515 6.49583 6.60929 5.06926 8.56225C3.64268 10.5152 2.67739 12.7662 2.24597 15.1459C1.81455 17.5256 1.92822 19.9721 2.57844 22.3016C3.22865 24.6311 4.3985 26.7828 6.00001 28.5951" stroke="#FFEEEC" stroke-width="4" stroke-linecap="round" stroke-linejoin="round"/>
</svg>